<svg xmlns="http://www.w3.org/2000/svg" xmlns:xlink="http://www.w3.org/1999/xlink" id="Layer_1" x="0" y="0" version="1.1" viewBox="0 0 514.38 177.24" style="enable-background:new 0 0 514.38 177.24" xml:space="preserve"><style type="text/css">.st0{fill:none}.st0,.st1{stroke:#000;stroke-width:.5;stroke-miterlimit:10}.st2{fill:none;stroke:#7f3f98}.st10,.st11,.st2,.st3{stroke-width:.5;stroke-miterlimit:10}.st3{stroke:#21409a}.st3,.st4,.st5,.st6{fill:none}.st4,.st5,.st6,.st7,.st8,.st9{stroke-width:.5;stroke-miterlimit:10}.st4{stroke:#00a14b}.st5{stroke:#ffde17}.st6,.st7{stroke:#ed1c24}.st10,.st11,.st7,.st8,.st9{fill:#fff}.st8{stroke:#ffde17}.st9{stroke:#00a14b}.st10{stroke:#21409a}.st11{stroke:#7f3f98}.st12{font-family:&apos;MyriadPro-Regular&apos;}.st13{font-size:5px}.st14{fill:#ed1c24}</style><rect width="12.26" height="9.73" x="12.52" y="20.41" class="st0"/><rect width="12.26" height="9.73" x="17.39" y="25.27" class="st0"/><line x1="12.52" x2="17.39" y1="30.14" y2="35" class="st0"/><line x1="24.79" x2="29.65" y1="20.41" y2="25.27" class="st0"/><line x1="24.79" x2="29.65" y1="30.14" y2="35" class="st0"/><line x1="12.52" x2="17.39" y1="20.41" y2="25.27" class="st0"/><circle cx="17.39" cy="34.82" r=".97" class="st1"/><circle cx="29.65" cy="35" r=".97" class="st1"/><circle cx="29.65" cy="25.27" r=".97" class="st1"/><circle cx="24.79" cy="20.41" r=".97" class="st1"/><circle cx="12.52" cy="20.41" r=".97" class="st1"/><circle cx="12.52" cy="30.14" r=".97" class="st1"/><circle cx="17.39" cy="25.27" r=".97" class="st1"/><circle cx="24.79" cy="30.14" r=".97" class="st1"/><polyline points="37.37 52.47 42.13 43.07 43.29 40.04 42.35 36.72 40.47 34.03" class="st2"/><polyline points="37.26 52.98 39.53 43.11 39.97 40.28 39.16 37.59 37.53 35.48" class="st3"/><polyline points="34.3 36.27 35.87 38.05 36.75 40.62 37.26 43.52 37.58 52.47" class="st4"/><polyline points="29.42 38.51 31.79 39.31 33.64 41.14 34.9 43.91 37.03 52.31" class="st5"/><polyline points="26.85 42.98 26.42 45.47 27.22 48.53 30.39 51.02 37.74 52.08" class="st6"/><circle cx="30.31" cy="51.02" r=".54" class="st7"/><circle cx="37.37" cy="52.31" r=".54" class="st7"/><circle cx="27.25" cy="48.56" r=".54" class="st7"/><circle cx="26.42" cy="45.51" r=".54" class="st7"/><circle cx="26.85" cy="42.98" r=".54" class="st7"/><circle cx="29.42" cy="38.51" r=".54" class="st8"/><circle cx="31.72" cy="39.3" r=".54" class="st8"/><circle cx="33.6" cy="41.1" r=".54" class="st8"/><circle cx="34.96" cy="44.06" r=".54" class="st8"/><circle cx="34.3" cy="36.27" r=".54" class="st9"/><circle cx="35.85" cy="38.09" r=".54" class="st9"/><circle cx="36.62" cy="40.57" r=".54" class="st9"/><circle cx="37.3" cy="43.39" r=".54" class="st9"/><circle cx="37.58" cy="35.48" r=".54" class="st10"/><circle cx="39.15" cy="37.55" r=".54" class="st10"/><circle cx="39.88" cy="40.28" r=".54" class="st10"/><circle cx="39.51" cy="42.98" r=".54" class="st10"/><circle cx="40.51" cy="34.03" r=".54" class="st11"/><circle cx="42.29" cy="36.68" r=".54" class="st11"/><circle cx="43.21" cy="40.03" r=".54" class="st11"/><circle cx="42.04" cy="42.98" r=".54" class="st11"/><g><g><line x1="50.79" x2="69.59" y1="30.03" y2="30.03" class="st0"/><g><polygon points="68.19 31.88 68.97 30.03 68.19 28.18 72.57 30.03"/></g></g></g><text class="st12 st13" transform="matrix(1 0 0 1 54.0239 26.1382)">gconv1</text><text class="st12 st13" transform="matrix(1 0 0 1 37.159 31.1068)">29 x 2</text><text class="st12 st13" transform="matrix(1 0 0 1 74.2564 32.0017)">29 x 4</text><g><g><line x1="80.4" x2="80.4" y1="33.13" y2="51.92" class="st0"/><g><polygon points="78.55 50.52 80.4 51.31 82.25 50.52 80.4 54.91"/></g></g></g><text class="st12 st13" transform="matrix(1 0 0 1 66.5174 43.5303)">pool1</text><text class="st12 st13" transform="matrix(1 0 0 1 74.2564 59.8299)">15 x 4</text><g><g><line x1="86.02" x2="104.82" y1="54.9" y2="54.9" class="st0"/><g><polygon points="103.41 56.75 104.2 54.9 103.41 53.04 107.8 54.9"/></g></g></g><text class="st12 st13" transform="matrix(1 0 0 1 89.253 51.001)">gconv2</text><text class="st12 st13" transform="matrix(1 0 0 1 109.4855 56.8644)">15 x 8</text><g><g><line x1="115.63" x2="115.63" y1="57.99" y2="76.79" class="st0"/><g><polygon points="113.78 75.38 115.63 76.17 117.48 75.38 115.63 79.77"/></g></g></g><text class="st12 st13" transform="matrix(1 0 0 1 101.1121 68.393)">pool2</text><text class="st12 st13" transform="matrix(1 0 0 1 109.4855 84.6926)">7 x 8</text><g><g><line x1="119.94" x2="138.73" y1="79.7" y2="79.7" class="st0"/><g><polygon points="137.33 81.55 138.12 79.7 137.33 77.85 141.72 79.7"/></g></g></g><text class="st12 st13" transform="matrix(1 0 0 1 123.1692 75.8027)">gconv3</text><text class="st12 st13" transform="matrix(1 0 0 1 143.4016 81.6662)">7 x 16</text><g><g><line x1="149.54" x2="149.54" y1="82.79" y2="101.59" class="st0"/><g><polygon points="147.69 100.18 149.54 100.97 151.4 100.18 149.54 104.57"/></g></g></g><text class="st12 st13" transform="matrix(1 0 0 1 135.0283 93.1948)">pool3</text><text class="st12 st13" transform="matrix(1 0 0 1 143.4017 109.4944)">4 x 16</text><g><g><line x1="152.91" x2="171.7" y1="104.59" y2="104.59" class="st0"/><g><polygon points="170.3 106.44 171.08 104.59 170.3 102.74 174.68 104.59"/></g></g></g><text class="st12 st13" transform="matrix(1 0 0 1 156.1341 100.6925)">gconv4</text><text class="st12 st13" transform="matrix(1 0 0 1 176.3666 106.556)">4 x 32</text><g><g><line x1="182.51" x2="182.51" y1="107.68" y2="126.48" class="st0"/><g><polygon points="180.66 125.07 182.51 125.86 184.36 125.07 182.51 129.46"/></g></g></g><text class="st12 st13" transform="matrix(1 0 0 1 167.9932 118.0845)">pool4</text><text class="st12 st13" transform="matrix(1 0 0 1 176.3666 134.3842)">2 x 32</text><g><g><line x1="186.15" x2="204.94" y1="129.33" y2="129.33" class="st0"/><g><polygon points="203.54 131.18 204.32 129.33 203.54 127.48 207.93 129.33"/></g></g></g><text class="st12 st13" transform="matrix(1 0 0 1 189.3764 125.4325)">gconv5</text><text class="st12 st13" transform="matrix(1 0 0 1 209.6088 131.296)">2 x 64</text><g><g><line x1="215.75" x2="215.75" y1="132.42" y2="151.22" class="st0"/><g><polygon points="213.9 149.81 215.75 150.6 217.6 149.81 215.75 154.2"/></g></g></g><text class="st12 st13" transform="matrix(1 0 0 1 201.2355 142.8246)">pool5</text><text class="st12 st13" transform="matrix(1 0 0 1 209.6089 159.1242)">1 x 64</text><line x1="50.99" x2="55.86" y1="62.81" y2="67.67" class="st0"/><line x1="68.12" x2="68.12" y1="57.95" y2="67.67" class="st0"/><circle cx="55.86" cy="67.49" r=".97" class="st1"/><circle cx="68.12" cy="67.67" r=".97" class="st1"/><circle cx="68.12" cy="57.95" r=".97" class="st1"/><circle cx="50.99" cy="62.81" r=".97" class="st1"/><polyline points="79.84 85.14 85.76 72.72 82.95 66.71" class="st2"/><polyline points="79.73 85.65 82.44 72.96 80 68.15" class="st3"/><polyline points="76.77 68.94 79.23 73.3 80.05 85.14" class="st4"/><polyline points="71.89 71.18 76.11 73.82 79.5 84.98" class="st5"/><polyline points="69.32 75.66 68.9 78.14 80.21 84.75" class="st6"/><circle cx="79.84" cy="84.98" r=".54" class="st7"/><circle cx="68.9" cy="78.19" r=".54" class="st7"/><circle cx="69.32" cy="75.66" r=".54" class="st7"/><circle cx="71.89" cy="71.18" r=".54" class="st8"/><circle cx="76.07" cy="73.78" r=".54" class="st8"/><circle cx="76.77" cy="68.94" r=".54" class="st9"/><circle cx="79.09" cy="73.24" r=".54" class="st9"/><circle cx="80.05" cy="68.15" r=".54" class="st10"/><circle cx="82.35" cy="72.95" r=".54" class="st10"/><circle cx="82.98" cy="66.71" r=".54" class="st11"/><circle cx="85.68" cy="72.7" r=".54" class="st11"/><line x1="50.99" x2="68.12" y1="62.81" y2="67.67" class="st0"/><line x1="55.86" x2="68.12" y1="67.67" y2="67.67" class="st0"/><line x1="50.99" x2="68.12" y1="62.81" y2="57.95" class="st0"/><line x1="55.86" x2="68.12" y1="67.67" y2="57.95" class="st0"/><path d="M70.42,81.78" class="st7"/><circle cx="92.57" cy="93.1" r=".97" class="st1"/><circle cx="104.84" cy="93.29" r=".97" class="st1"/><line x1="92.57" x2="104.84" y1="93.29" y2="93.29" class="st0"/><path d="M121.29,97.49" class="st2"/><path d="M115.37,109.92" class="st2"/><line x1="115.26" x2="115.53" y1="110.43" y2="92.93" class="st3"/><line x1="112.3" x2="115.03" y1="93.72" y2="109.76" class="st4"/><line x1="107.42" x2="115.03" y1="95.96" y2="109.76" class="st5"/><line x1="104.85" x2="115.03" y1="100.44" y2="109.76" class="st6"/><circle cx="115.37" cy="109.76" r=".54" class="st7"/><circle cx="104.85" cy="100.44" r=".54" class="st7"/><circle cx="107.42" cy="95.96" r=".54" class="st8"/><circle cx="112.3" cy="93.72" r=".54" class="st9"/><circle cx="115.58" cy="92.93" r=".54" class="st10"/><path d="M105.95,106.56" class="st7"/><circle cx="138.55" cy="114.26" r=".97" class="st1"/><path d="M159.83,117.49" class="st2"/><path d="M153.91,129.92" class="st2"/><line x1="150.53" x2="153.91" y1="115.96" y2="129.92" class="st5"/><line x1="143.39" x2="153.57" y1="120.44" y2="129.76" class="st6"/><circle cx="153.91" cy="129.76" r=".54" class="st7"/><circle cx="143.39" cy="120.44" r=".54" class="st7"/><circle cx="150.53" cy="116.23" r=".54" class="st8"/><path d="M144.49,126.56" class="st7"/><circle cx="185.91" cy="140.76" r=".54" class="st7"/><circle cx="176.37" cy="140.76" r=".97" class="st1"/><circle cx="215.91" cy="163.76" r=".54" class="st7"/><g><g><line x1="220.79" x2="239.59" y1="154.2" y2="154.2" class="st0"/><g><polygon points="238.18 156.05 238.97 154.2 238.18 152.35 242.57 154.2"/></g></g></g><text class="st12 st13" transform="matrix(1 0 0 1 228.0196 150.3085)">fc1</text><text class="st12 st13" transform="matrix(1 0 0 1 246.5382 155.7668)">1 x 20</text><g><g><line x1="262.22" x2="281.01" y1="154.2" y2="154.2" class="st0"/><g><polygon points="279.61 156.05 280.4 154.2 279.61 152.35 284 154.2"/></g></g></g><text class="st12 st13" transform="matrix(1 0 0 1 269.4485 150.3083)">fc2</text><text class="st12 st13" transform="matrix(1 0 0 1 282.1149 131.2961)">2 x 64</text><g><g><line x1="288.26" x2="288.26" y1="155.2" y2="136.41" class="st0"/><g><polygon points="290.11 137.81 288.26 137.03 286.41 137.81 288.26 133.42"/></g></g></g><text class="st12 st13" transform="matrix(1 0 0 1 292.1697 145.3136)">unpool6</text><text class="st12 st13" transform="matrix(1 0 0 1 282.1149 160.1243)">1 x 64</text><g><g><line x1="296.16" x2="314.95" y1="131.27" y2="131.27" class="st0"/><g><polygon points="313.55 133.13 314.34 131.27 313.55 129.42 317.94 131.27"/></g></g></g><text class="st12 st13" transform="matrix(1 0 0 1 299.3884 127.3799)">gconv6</text><text class="st12 st13" transform="matrix(1 0 0 1 315.487 106.4838)">4 x 32</text><g><g><line x1="321.63" x2="321.63" y1="129.39" y2="110.6" class="st0"/><g><polygon points="323.48 112 321.63 111.21 319.78 112 321.63 107.61"/></g></g></g><text class="st12 st13" transform="matrix(1 0 0 1 325.5419 119.5012)">unpool7</text><text class="st12 st13" transform="matrix(1 0 0 1 318.4871 134.312)">2 x 32</text><g><g><line x1="329.53" x2="348.33" y1="105.46" y2="105.46" class="st0"/><g><polygon points="346.92 107.31 347.71 105.46 346.92 103.61 351.31 105.46"/></g></g></g><text class="st12 st13" transform="matrix(1 0 0 1 332.7605 101.5676)">gconv7</text><g><line x1="226.9" x2="277.41" y1="129.92" y2="129.92" class="st14"/><g><line x1="226.9" x2="274.43" y1="129.92" y2="129.92" class="st6"/><g><polygon points="273.02 131.77 273.81 129.92 273.02 128.07 277.41 129.92" class="st14"/></g></g></g><g><line x1="192.78" x2="312.25" y1="104.59" y2="104.59" class="st14"/><g><line x1="192.78" x2="309.27" y1="104.59" y2="104.59" class="st6"/><g><polygon points="307.86 106.44 308.65 104.59 307.86 102.74 312.25 104.59" class="st14"/></g></g></g><g><line x1="159.83" x2="343.15" y1="79.7" y2="79.7" class="st14"/><g><line x1="159.83" x2="340.16" y1="79.7" y2="79.7" class="st6"/><g><polygon points="338.76 81.55 339.55 79.7 338.76 77.85 343.15 79.7" class="st14"/></g></g></g><text class="st12 st13" transform="matrix(1 0 0 1 347.7145 80.9648)">7 x 16</text><g><g><line x1="353.86" x2="353.86" y1="103.87" y2="85.08" class="st0"/><g><polygon points="355.71 86.48 353.86 85.7 352 86.48 353.86 82.09"/></g></g></g><text class="st12 st13" transform="matrix(1 0 0 1 357.7693 93.9822)">unpool8</text><text class="st12 st13" transform="matrix(1 0 0 1 351.7145 108.793)">4 x 16</text><g><g><line x1="361.76" x2="380.55" y1="79.94" y2="79.94" class="st0"/><g><polygon points="379.15 81.8 379.94 79.94 379.15 78.09 383.54 79.94"/></g></g></g><text class="st12 st13" transform="matrix(1 0 0 1 364.988 76.0486)">gconv8</text><text class="st12 st13" transform="matrix(1 0 0 1 380.4802 55.8321)">15 x 8</text><g><g><line x1="386.62" x2="386.62" y1="78.74" y2="59.94" class="st0"/><g><polygon points="388.47 61.35 386.62 60.56 384.77 61.35 386.62 56.96"/></g></g></g><text class="st12 st13" transform="matrix(1 0 0 1 390.5351 68.8495)">unpool9</text><text class="st12 st13" transform="matrix(1 0 0 1 384.4803 83.6603)">7 x 8</text><g><g><line x1="394.52" x2="413.32" y1="54.81" y2="54.81" class="st0"/><g><polygon points="411.92 56.66 412.7 54.81 411.92 52.96 416.3 54.81"/></g></g></g><text class="st12 st13" transform="matrix(1 0 0 1 397.7538 50.9159)">gconv9</text><g><line x1="124.46" x2="377.08" y1="54.9" y2="54.9" class="st14"/><g><line x1="124.46" x2="374.1" y1="54.9" y2="54.9" class="st6"/><g><polygon points="372.69 56.75 373.48 54.9 372.69 53.04 377.08 54.9" class="st14"/></g></g></g><g><line x1="89.25" x2="410.94" y1="30.03" y2="30.03" class="st14"/><g><line x1="89.25" x2="407.96" y1="30.03" y2="30.03" class="st6"/><g><polygon points="406.55 31.88 407.34 30.03 406.55 28.18 410.94 30.03" class="st14"/></g></g></g><text class="st12 st13" transform="matrix(1 0 0 1 414.6105 32.0743)">29 x 4</text><g><g><line x1="420.75" x2="420.75" y1="54.98" y2="36.19" class="st0"/><g><polygon points="422.6 37.59 420.75 36.8 418.9 37.59 420.75 33.2"/></g></g></g><text class="st12 st13" transform="matrix(1 0 0 1 424.6654 45.0917)">unpool10</text><text class="st12 st13" transform="matrix(1 0 0 1 418.6106 59.9025)">15 x 4</text><g><g><line x1="428.65" x2="447.45" y1="31.05" y2="31.05" class="st0"/><g><polygon points="446.05 32.9 446.83 31.05 446.05 29.2 450.43 31.05"/></g></g></g><text class="st12 st13" transform="matrix(1 0 0 1 431.8841 27.1581)">gconv10</text><text class="st12 st13" transform="matrix(1 0 0 1 453.4764 32.2021)">29 x 3</text><circle cx="287.91" cy="163.76" r=".54" class="st7"/><circle cx="328.45" cy="138.82" r=".54" class="st7"/><circle cx="318.91" cy="138.82" r=".97" class="st1"/><circle cx="360.83" cy="114.19" r=".97" class="st1"/><path d="M382.11,117.43" class="st2"/><path d="M376.19,129.85" class="st2"/><line x1="372.81" x2="376.19" y1="115.89" y2="129.85" class="st5"/><line x1="365.67" x2="375.85" y1="120.37" y2="129.69" class="st6"/><circle cx="376.19" cy="129.69" r=".54" class="st7"/><circle cx="365.67" cy="120.37" r=".54" class="st7"/><circle cx="372.81" cy="116.16" r=".54" class="st8"/><path d="M366.77,126.49" class="st7"/><circle cx="390.45" cy="88.72" r=".97" class="st1"/><circle cx="402.71" cy="88.9" r=".97" class="st1"/><line x1="390.45" x2="402.71" y1="88.9" y2="88.9" class="st0"/><path d="M419.17,93.11" class="st2"/><path d="M413.24,105.54" class="st2"/><line x1="413.14" x2="413.4" y1="106.04" y2="88.55" class="st3"/><line x1="410.18" x2="412.9" y1="89.34" y2="105.38" class="st4"/><line x1="405.3" x2="412.9" y1="91.58" y2="105.38" class="st5"/><line x1="402.72" x2="412.9" y1="96.05" y2="105.38" class="st6"/><circle cx="413.24" cy="105.38" r=".54" class="st7"/><circle cx="402.72" cy="96.05" r=".54" class="st7"/><circle cx="405.3" cy="91.58" r=".54" class="st8"/><circle cx="410.18" cy="89.34" r=".54" class="st9"/><circle cx="413.46" cy="88.55" r=".54" class="st10"/><path d="M403.82,102.18" class="st7"/><line x1="423.65" x2="428.51" y1="67.55" y2="72.41" class="st0"/><line x1="440.78" x2="440.78" y1="62.68" y2="72.41" class="st0"/><circle cx="428.51" cy="72.23" r=".97" class="st1"/><circle cx="440.78" cy="72.41" r=".97" class="st1"/><circle cx="440.78" cy="62.68" r=".97" class="st1"/><circle cx="423.65" cy="67.55" r=".97" class="st1"/><polyline points="452.5 89.88 458.42 77.45 455.6 71.44" class="st2"/><polyline points="452.39 90.38 455.1 77.69 452.65 72.89" class="st3"/><polyline points="449.43 73.68 451.88 78.03 452.71 89.88" class="st4"/><polyline points="444.55 75.91 448.77 78.55 452.15 89.71" class="st5"/><polyline points="441.98 80.39 441.55 82.88 452.87 89.48" class="st6"/><circle cx="452.5" cy="89.71" r=".54" class="st7"/><circle cx="441.55" cy="82.92" r=".54" class="st7"/><circle cx="441.97" cy="80.39" r=".54" class="st7"/><circle cx="444.55" cy="75.91" r=".54" class="st8"/><circle cx="448.73" cy="78.51" r=".54" class="st8"/><circle cx="449.43" cy="73.68" r=".54" class="st9"/><circle cx="451.75" cy="77.98" r=".54" class="st9"/><circle cx="452.71" cy="72.89" r=".54" class="st10"/><circle cx="455.01" cy="77.69" r=".54" class="st10"/><circle cx="455.64" cy="71.44" r=".54" class="st11"/><circle cx="458.34" cy="77.44" r=".54" class="st11"/><line x1="423.65" x2="440.78" y1="67.55" y2="72.41" class="st0"/><line x1="428.51" x2="440.78" y1="72.41" y2="72.41" class="st0"/><line x1="423.65" x2="440.78" y1="67.55" y2="62.68" class="st0"/><line x1="428.51" x2="440.78" y1="72.41" y2="62.68" class="st0"/><path d="M443.08,86.51" class="st7"/><rect width="12.26" height="9.73" x="472.51" y="22.25" class="st0"/><rect width="12.26" height="9.73" x="477.37" y="27.11" class="st0"/><line x1="472.51" x2="477.37" y1="31.97" y2="36.84" class="st0"/><line x1="484.77" x2="489.63" y1="22.25" y2="27.11" class="st0"/><line x1="484.77" x2="489.63" y1="31.97" y2="36.84" class="st0"/><line x1="472.51" x2="477.37" y1="22.25" y2="27.11" class="st0"/><circle cx="477.37" cy="36.66" r=".97" class="st1"/><circle cx="489.63" cy="36.84" r=".97" class="st1"/><circle cx="489.63" cy="27.11" r=".97" class="st1"/><circle cx="484.77" cy="22.25" r=".97" class="st1"/><circle cx="472.51" cy="22.25" r=".97" class="st1"/><circle cx="472.51" cy="31.97" r=".97" class="st1"/><circle cx="477.37" cy="27.11" r=".97" class="st1"/><circle cx="484.77" cy="31.97" r=".97" class="st1"/><polyline points="497.35 54.31 502.11 44.91 503.27 41.88 502.33 38.56 500.46 35.87" class="st2"/><polyline points="497.25 54.81 499.52 44.95 499.95 42.12 499.15 39.43 497.51 37.31" class="st3"/><polyline points="494.28 38.11 495.85 39.89 496.74 42.46 497.25 45.36 497.57 54.31" class="st4"/><polyline points="489.4 40.34 491.78 41.14 493.62 42.98 494.88 45.74 497.01 54.14" class="st5"/><polyline points="486.83 44.82 486.41 47.3 487.2 50.37 490.37 52.85 497.72 53.91" class="st6"/><circle cx="490.3" cy="52.85" r=".54" class="st7"/><circle cx="497.35" cy="54.14" r=".54" class="st7"/><circle cx="487.24" cy="50.39" r=".54" class="st7"/><circle cx="486.41" cy="47.35" r=".54" class="st7"/><circle cx="486.83" cy="44.82" r=".54" class="st7"/><circle cx="489.4" cy="40.34" r=".54" class="st8"/><circle cx="491.7" cy="41.14" r=".54" class="st8"/><circle cx="493.58" cy="42.94" r=".54" class="st8"/><circle cx="494.94" cy="45.89" r=".54" class="st8"/><circle cx="494.28" cy="38.11" r=".54" class="st9"/><circle cx="495.84" cy="39.93" r=".54" class="st9"/><circle cx="496.61" cy="42.4" r=".54" class="st9"/><circle cx="497.28" cy="45.22" r=".54" class="st9"/><circle cx="497.57" cy="37.31" r=".54" class="st10"/><circle cx="499.14" cy="39.39" r=".54" class="st10"/><circle cx="499.86" cy="42.12" r=".54" class="st10"/><circle cx="499.5" cy="44.82" r=".54" class="st10"/><circle cx="500.49" cy="35.87" r=".54" class="st11"/><circle cx="502.27" cy="38.51" r=".54" class="st11"/><circle cx="503.19" cy="41.87" r=".54" class="st11"/><circle cx="502.03" cy="44.82" r=".54" class="st11"/><g><g><line x1="10.05" x2="10.05" y1="48.97" y2="56.21" class="st0"/><g><polygon points="9.2 49.97 10.05 49.12 10.89 49.97 10.89 49.25 10.05 48.4 9.2 49.25"/></g></g></g><g><g><line x1="17.29" x2="10.05" y1="56.21" y2="56.21" class="st0"/><g><polygon points="16.29 55.37 17.14 56.21 16.29 57.06 17.01 57.06 17.86 56.21 17.01 55.37"/></g></g></g><g><g><line x1="469.36" x2="469.36" y1="47.03" y2="54.27" class="st0"/><g><polygon points="468.51 48.03 469.36 47.18 470.21 48.03 470.21 47.31 469.36 46.46 468.51 47.31"/></g></g></g><g><g><line x1="475.63" x2="469.36" y1="57.89" y2="54.27" class="st0"/><g><polygon points="475.19 56.66 475.5 57.82 474.35 58.13 474.97 58.49 476.13 58.18 475.82 57.02"/></g></g></g><g><g><line x1="463.09" x2="469.36" y1="57.89" y2="54.27" class="st0"/><g><polygon points="464.38 58.13 463.22 57.82 463.53 56.66 462.9 57.02 462.59 58.18 463.75 58.49"/></g></g></g></svg>